<svg width="430" height="192" viewBox="0 0 430 192" fill="none" xmlns="http://www.w3.org/2000/svg">
<path d="M69.632 50.376V108.872C69.632 119.709 66.7733 127.944 61.056 133.576C55.424 139.123 47.488 141.896 37.248 141.896C26.24 141.896 17.4933 138.867 11.008 132.808C4.52267 126.749 1.28 117.917 1.28 106.312H29.312C29.312 109.981 29.9093 112.584 31.104 114.12C32.2987 115.571 33.92 116.296 35.968 116.296C37.6747 116.296 38.9973 115.741 39.936 114.632C40.8747 113.523 41.344 111.603 41.344 108.872V50.376H69.632ZM126.06 141.896C117.527 141.896 109.676 139.891 102.508 135.88C95.4253 131.869 89.7933 126.323 85.612 119.24C81.4307 112.157 79.34 104.179 79.34 95.304C79.34 86.4293 81.4307 78.4507 85.612 71.368C89.7933 64.2853 95.4253 58.7813 102.508 54.856C109.676 50.8453 117.527 48.84 126.06 48.84C134.593 48.84 142.401 50.8453 149.484 54.856C156.567 58.7813 162.156 64.2853 166.252 71.368C170.433 78.4507 172.524 86.4293 172.524 95.304C172.524 104.179 170.433 112.157 166.252 119.24C162.156 126.323 156.524 131.869 149.356 135.88C142.273 139.891 134.508 141.896 126.06 141.896ZM126.06 115.4C131.692 115.4 136.044 113.608 139.116 110.024C142.188 106.355 143.724 101.448 143.724 95.304C143.724 89.0747 142.188 84.168 139.116 80.584C136.044 76.9147 131.692 75.08 126.06 75.08C120.343 75.08 115.948 76.9147 112.876 80.584C109.804 84.168 108.268 89.0747 108.268 95.304C108.268 101.448 109.804 106.355 112.876 110.024C115.948 113.608 120.343 115.4 126.06 115.4ZM238.327 81.352C237.218 79.56 235.639 78.1947 233.591 77.256C231.543 76.232 229.068 75.72 226.167 75.72C220.706 75.72 216.482 77.512 213.495 81.096C210.508 84.5947 209.015 89.416 209.015 95.56C209.015 102.643 210.679 107.933 214.007 111.432C217.335 114.931 222.455 116.68 229.367 116.68C235.938 116.68 241.228 114.035 245.239 108.744H222.583V88.648H268.791V117.064C264.866 123.805 259.447 129.608 252.535 134.472C245.623 139.251 236.876 141.64 226.295 141.64C216.908 141.64 208.716 139.72 201.719 135.88C194.807 131.955 189.474 126.493 185.719 119.496C182.05 112.499 180.215 104.52 180.215 95.56C180.215 86.6 182.05 78.6213 185.719 71.624C189.474 64.6267 194.807 59.208 201.719 55.368C208.631 51.4427 216.738 49.48 226.039 49.48C237.9 49.48 247.543 52.3387 254.967 58.056C262.476 63.7733 266.914 71.5387 268.279 81.352H238.327ZM324.593 141L307.569 108.488H307.441V141H279.025V50.376H321.265C328.604 50.376 334.876 51.6987 340.081 54.344C345.286 56.904 349.169 60.4453 351.729 64.968C354.374 69.4053 355.697 74.44 355.697 80.072C355.697 86.1307 353.99 91.5067 350.577 96.2C347.249 100.893 342.428 104.264 336.113 106.312L355.825 141H324.593ZM307.441 89.544H318.705C321.436 89.544 323.484 88.9467 324.849 87.752C326.214 86.472 326.897 84.5093 326.897 81.864C326.897 79.4747 326.172 77.5973 324.721 76.232C323.356 74.8667 321.35 74.184 318.705 74.184H307.441V89.544ZM393.191 73.032V84.168H421.351V105.544H393.191V118.344H425.191V141H364.775V50.376H425.191V73.032H393.191Z" fill="white"/>
<circle cx="110" cy="25" r="9" fill="#D9D9D9"/>
<circle cx="135" cy="25" r="9" fill="#D9D9D9"/>
</svg>
